<svg width="341" height="121" viewBox="0 0 341 121" fill="none" xmlns="http://www.w3.org/2000/svg">
<path d="M10.2748 20.6526C10.2748 9.79879 19.0736 1 29.9274 1V1V29.4446H10.2748V20.6526Z" fill="#26252A" stroke="#26252A" stroke-width="0.805851"/>
<rect x="10.2748" y="29.4446" width="19.6526" height="62.1214" fill="#26252A" stroke="#26252A" stroke-width="0.805851"/>
<path fill-rule="evenodd" clip-rule="evenodd" d="M10.6316 104.105C10.3975 102.892 10.2748 101.639 10.2748 100.358V91.566H29.9275V120.011C25.1685 120.011 20.8045 118.319 17.4041 115.504C14.0117 117.764 8.57206 119.913 2 118.718C3.81011 117.942 10.792 113.287 10.5334 103.978C10.5648 104.021 10.5975 104.064 10.6316 104.105Z" fill="#26252A"/>
<path d="M10.6316 104.105L10.321 104.362L11.0272 104.028L10.6316 104.105ZM10.2748 91.566V91.1631H9.87192V91.566H10.2748ZM29.9275 91.566H30.3304V91.1631H29.9275V91.566ZM29.9275 120.011V120.414H30.3304V120.011H29.9275ZM17.4041 115.504L17.661 115.194L17.4302 115.003L17.1807 115.169L17.4041 115.504ZM2 118.718L1.84128 118.347L0.610887 118.875L1.92792 119.114L2 118.718ZM10.5334 103.978L10.8592 103.741L10.0945 102.69L10.1306 103.989L10.5334 103.978ZM9.87192 100.358C9.87192 101.665 9.99701 102.943 10.236 104.181L11.0272 104.028C10.7979 102.841 10.6778 101.614 10.6778 100.358H9.87192ZM9.87192 91.566V100.358H10.6778V91.566H9.87192ZM29.9275 91.1631H10.2748V91.969H29.9275V91.1631ZM30.3304 120.011V91.566H29.5246V120.011H30.3304ZM17.1472 115.815C20.6172 118.687 25.0712 120.414 29.9275 120.414V119.608C25.2657 119.608 20.9919 117.951 17.661 115.194L17.1472 115.815ZM1.92792 119.114C8.62833 120.332 14.1727 118.141 17.6275 115.84L17.1807 115.169C13.8508 117.387 8.5158 119.493 2.07208 118.321L1.92792 119.114ZM10.1306 103.989C10.2568 108.533 8.61843 111.933 6.72782 114.296C4.8293 116.669 2.68461 117.986 1.84128 118.347L2.15872 119.088C3.1255 118.674 5.3768 117.275 7.35708 114.8C9.34528 112.314 11.0685 108.733 10.9361 103.967L10.1306 103.989ZM10.9422 103.848C10.9133 103.813 10.8857 103.778 10.8592 103.741L10.2075 104.215C10.2439 104.265 10.2817 104.314 10.321 104.362L10.9422 103.848Z" fill="#26252A"/>
<rect x="29.9275" y="1" width="290.877" height="119.011" fill="#26252A"/>
<rect x="29.9275" y="1" width="290.877" height="119.011" stroke="#26252A" stroke-width="0.805851"/>
<path d="M340.457 20.6526C340.457 9.79879 331.659 1 320.805 1V1V29.4446H340.457V20.6526Z" fill="#26252A" stroke="#26252A" stroke-width="0.805851"/>
<rect width="19.6526" height="62.1214" transform="matrix(-1 0 0 1 340.457 29.4446)" fill="#26252A" stroke="#26252A" stroke-width="0.805851"/>
<path d="M340.457 100.358C340.457 111.212 331.659 120.011 320.805 120.011V120.011V91.566H340.457V100.358Z" fill="#26252A" stroke="#26252A" stroke-width="0.805851"/>
</svg>
