<svg width="217" height="121" viewBox="0 0 217 121" fill="none" xmlns="http://www.w3.org/2000/svg">
<path d="M10.2748 20.6526C10.2748 9.79879 19.0736 1 29.9274 1V1V29.4446H10.2748V20.6526Z" fill="#26252A" stroke="#26252A" stroke-width="0.805851"/>
<rect x="10.2748" y="29.4446" width="19.6526" height="62.1214" fill="#26252A" stroke="#26252A" stroke-width="0.805851"/>
<path fill-rule="evenodd" clip-rule="evenodd" d="M10.6316 104.105C10.3975 102.892 10.2748 101.639 10.2748 100.358V91.566H29.9275V120.011C25.1685 120.011 20.8045 118.319 17.4041 115.504C14.0117 117.764 8.57206 119.913 2 118.718C3.81011 117.942 10.792 113.287 10.5334 103.978C10.5648 104.021 10.5975 104.064 10.6316 104.105Z" fill="#26252A"/>
<path d="M10.6316 104.105L10.321 104.362L11.0272 104.028L10.6316 104.105ZM10.2748 91.566V91.1631H9.87192V91.566H10.2748ZM29.9275 91.566H30.3304V91.1631H29.9275V91.566ZM29.9275 120.011V120.414H30.3304V120.011H29.9275ZM17.4041 115.504L17.661 115.194L17.4302 115.003L17.1807 115.169L17.4041 115.504ZM2 118.718L1.84128 118.347L0.610887 118.875L1.92792 119.114L2 118.718ZM10.5334 103.978L10.8592 103.741L10.0945 102.69L10.1306 103.989L10.5334 103.978ZM9.87192 100.358C9.87192 101.665 9.99701 102.943 10.236 104.181L11.0272 104.028C10.7979 102.841 10.6778 101.614 10.6778 100.358H9.87192ZM9.87192 91.566V100.358H10.6778V91.566H9.87192ZM29.9275 91.1631H10.2748V91.969H29.9275V91.1631ZM30.3304 120.011V91.566H29.5246V120.011H30.3304ZM17.1472 115.815C20.6172 118.687 25.0712 120.414 29.9275 120.414V119.608C25.2657 119.608 20.9919 117.951 17.661 115.194L17.1472 115.815ZM1.92792 119.114C8.62833 120.332 14.1727 118.141 17.6275 115.84L17.1807 115.169C13.8508 117.387 8.5158 119.493 2.07208 118.321L1.92792 119.114ZM10.1306 103.989C10.2568 108.533 8.61843 111.933 6.72782 114.296C4.8293 116.669 2.68461 117.986 1.84128 118.347L2.15872 119.088C3.1255 118.674 5.3768 117.275 7.35708 114.8C9.34528 112.314 11.0685 108.733 10.9361 103.967L10.1306 103.989ZM10.9422 103.848C10.9133 103.813 10.8857 103.778 10.8592 103.741L10.2075 104.215C10.2439 104.265 10.2817 104.314 10.321 104.362L10.9422 103.848Z" fill="#26252A"/>
<rect x="29.9274" y="1" width="166.42" height="119.011" fill="#26252A"/>
<path d="M38.7206 22.2363C39.7021 22.2363 40.5765 22.3835 41.3438 22.6779C42.1112 22.9724 42.7268 23.3784 43.1908 23.8959C43.6548 24.4045 44.0028 24.98 44.2348 25.6224C44.4757 26.2648 44.5961 26.9519 44.5961 27.6835C44.5961 28.3973 44.498 29.0531 44.3017 29.651C44.1054 30.2488 43.8333 30.7484 43.4853 31.15C43.1462 31.5515 42.7848 31.8861 42.4012 32.1538C42.0264 32.4125 41.6249 32.6177 41.1966 32.7694L44.9173 40.5053H42.2539L38.8812 33.2378H34.4511V40.5053H32.1223V22.2363H38.7206ZM34.4511 31.1901H38.3191C39.5861 31.1901 40.5453 30.9001 41.1966 30.3202C41.8569 29.7402 42.187 28.9059 42.187 27.8174C42.187 26.6753 41.848 25.8053 41.1699 25.2075C40.5007 24.6008 39.5861 24.2974 38.4262 24.2974H34.4511V31.1901ZM53.4263 40.7328C51.6061 40.7328 50.1651 40.1395 49.1033 38.9528C48.0504 37.7571 47.524 36.1555 47.524 34.148V32.5687C47.524 30.6771 48.037 29.1468 49.0631 27.978C50.0892 26.8002 51.5079 26.2113 53.3192 26.2113C55.1305 26.2113 56.5492 26.8091 57.5753 28.0047C58.6014 29.1914 59.1145 30.7663 59.1145 32.7293V34.0409H49.826V34.2952C49.826 35.6514 50.1517 36.7444 50.8031 37.5742C51.4544 38.3951 52.3467 38.8056 53.4798 38.8056C54.2829 38.8056 54.9521 38.6182 55.4874 38.2434C56.0228 37.8687 56.4065 37.3467 56.6384 36.6775H58.9271C58.6505 37.8999 58.0393 38.8814 57.0935 39.622C56.1477 40.3625 54.9253 40.7328 53.4263 40.7328ZM49.826 32.1805H56.8124V32.1404C56.8124 30.9983 56.4912 30.048 55.8488 29.2896C55.2064 28.5222 54.3676 28.1386 53.3326 28.1386C52.2887 28.1386 51.441 28.5222 50.7897 29.2896C50.1472 30.0569 49.826 31.0072 49.826 32.1404V32.1805ZM62.4572 40.5053V26.4388H64.7459V28.1653H64.8663C65.1162 27.63 65.5534 27.1705 66.178 26.7868C66.8115 26.4031 67.561 26.2113 68.4265 26.2113C70.5322 26.2113 71.884 26.9653 72.4818 28.4732H72.5888C72.8744 27.8218 73.3919 27.282 74.1414 26.8537C74.8909 26.4254 75.8099 26.2113 76.8985 26.2113C78.3707 26.2113 79.5262 26.6351 80.3649 27.4828C81.2036 28.3304 81.623 29.4814 81.623 30.9358V40.5053H79.3343V31.4043C79.3343 30.4763 79.0711 29.7268 78.5447 29.1558C78.0183 28.5758 77.2688 28.2858 76.2962 28.2858C75.3236 28.2858 74.5607 28.5936 74.0075 29.2093C73.4633 29.816 73.1911 30.6191 73.1911 31.6184V40.5053H70.9025V31.6184C70.9025 30.5477 70.6303 29.7268 70.0861 29.1558C69.5507 28.5758 68.8012 28.2858 67.8376 28.2858C66.9453 28.2858 66.2092 28.5802 65.6292 29.1691C65.0492 29.7491 64.7593 30.5566 64.7593 31.5916V40.5053H62.4572ZM85.6617 40.5053V26.4388H87.9638V40.5053H85.6617ZM85.7688 24.0966C85.4833 23.8111 85.3405 23.4631 85.3405 23.0527C85.3405 22.6423 85.4833 22.2943 85.7688 22.0087C86.0543 21.7232 86.4023 21.5805 86.8127 21.5805C87.2232 21.5805 87.5712 21.7232 87.8567 22.0087C88.1511 22.2943 88.2983 22.6423 88.2983 23.0527C88.2983 23.4631 88.1511 23.8111 87.8567 24.0966C87.5712 24.3732 87.2232 24.5115 86.8127 24.5115C86.4023 24.5115 86.0543 24.3732 85.7688 24.0966ZM92.0828 40.5053V26.4388H94.3714V28.2992H94.4383C94.7596 27.746 95.2637 27.2597 95.9507 26.8403C96.6467 26.421 97.5122 26.2113 98.5472 26.2113C100.037 26.2113 101.251 26.6753 102.188 27.6032C103.125 28.5222 103.593 29.816 103.593 31.4846V40.5053H101.291V31.8727C101.291 30.7127 100.979 29.8294 100.354 29.2227C99.7384 28.607 98.9041 28.2992 97.8512 28.2992C96.7092 28.2992 95.8437 28.6472 95.2548 29.3431C94.6748 30.0302 94.3848 30.8957 94.3848 31.9396V40.5053H92.0828ZM112.396 26.2247C113.298 26.2247 114.105 26.4254 114.819 26.827C115.533 27.2285 116.072 27.7504 116.438 28.3929H116.505V21.2726H118.807V40.5053H116.599V38.3907H116.545C116.144 39.1223 115.582 39.6934 114.859 40.1038C114.145 40.5142 113.324 40.7195 112.396 40.7195C110.603 40.7195 109.215 40.1216 108.234 38.926C107.261 37.7215 106.775 36.1154 106.775 34.1078V32.8363C106.775 30.8823 107.275 29.2941 108.274 28.0717C109.282 26.8403 110.656 26.2247 112.396 26.2247ZM112.718 28.2323C111.629 28.2323 110.75 28.6338 110.081 29.4368C109.421 30.2399 109.091 31.3998 109.091 32.9166V34.0275C109.091 35.5443 109.425 36.7043 110.094 37.5073C110.764 38.3103 111.651 38.7119 112.758 38.7119C113.944 38.7119 114.872 38.3059 115.542 37.4939C116.211 36.6731 116.545 35.522 116.545 34.0409V32.9166C116.545 31.489 116.202 30.3514 115.515 29.5037C114.828 28.6561 113.895 28.2323 112.718 28.2323ZM128.146 40.7328C126.326 40.7328 124.885 40.1395 123.823 38.9528C122.77 37.7571 122.244 36.1555 122.244 34.148V32.5687C122.244 30.6771 122.757 29.1468 123.783 27.978C124.809 26.8002 126.228 26.2113 128.039 26.2113C129.85 26.2113 131.269 26.8091 132.295 28.0047C133.321 29.1914 133.834 30.7663 133.834 32.7293V34.0409H124.546V34.2952C124.546 35.6514 124.871 36.7444 125.523 37.5742C126.174 38.3951 127.066 38.8056 128.2 38.8056C129.003 38.8056 129.672 38.6182 130.207 38.2434C130.742 37.8687 131.126 37.3467 131.358 36.6775H133.647C133.37 37.8999 132.759 38.8814 131.813 39.622C130.867 40.3625 129.645 40.7328 128.146 40.7328ZM124.546 32.1805H131.532V32.1404C131.532 30.9983 131.211 30.048 130.568 29.2896C129.926 28.5222 129.087 28.1386 128.052 28.1386C127.008 28.1386 126.161 28.5222 125.509 29.2896C124.867 30.0569 124.546 31.0072 124.546 32.1404V32.1805ZM137.177 40.5053V26.4388H139.479V28.1653H139.546C139.805 27.6478 140.22 27.1972 140.791 26.8136C141.371 26.421 142.111 26.2247 143.012 26.2247C143.28 26.2247 143.57 26.247 143.882 26.2916V28.3929C143.668 28.3572 143.293 28.3393 142.758 28.3393C140.581 28.3393 139.492 29.4904 139.492 31.7924V40.5053H137.177ZM146.208 39.2205C146.208 38.7922 146.36 38.4263 146.663 38.123C146.966 37.8196 147.332 37.6679 147.76 37.6679C148.18 37.6679 148.541 37.8196 148.844 38.123C149.148 38.4263 149.3 38.7922 149.3 39.2205C149.3 39.6398 149.148 40.0012 148.844 40.3046C148.541 40.6079 148.18 40.7596 147.76 40.7596C147.332 40.7596 146.966 40.6079 146.663 40.3046C146.36 40.0012 146.208 39.6398 146.208 39.2205ZM146.208 29.6911C146.208 29.2717 146.36 28.9104 146.663 28.607C146.966 28.3036 147.332 28.152 147.76 28.152C148.18 28.152 148.541 28.3036 148.844 28.607C149.148 28.9104 149.3 29.2717 149.3 29.6911C149.3 30.1194 149.148 30.4852 148.844 30.7886C148.541 31.092 148.18 31.2436 147.76 31.2436C147.332 31.2436 146.966 31.092 146.663 30.7886C146.36 30.4852 146.208 30.1194 146.208 29.6911ZM38.0648 70.5053H35.7494V54.3242H30.195V52.2363H43.6191V54.3242H38.0648V70.5053ZM45.851 70.5053V51.2726H48.153V58.2992H48.22C48.5412 57.746 49.0453 57.2597 49.7323 56.8403C50.4283 56.421 51.2893 56.2113 52.3154 56.2113C53.8144 56.2113 55.0279 56.6753 55.9559 57.6032C56.8927 58.5222 57.3612 59.816 57.3612 61.4846V70.5053H55.0591V61.8727C55.0591 60.7127 54.7513 59.8294 54.1356 59.2227C53.52 58.607 52.6813 58.2992 51.6195 58.2992C50.4774 58.2992 49.6119 58.6472 49.023 59.3431C48.443 60.0302 48.153 60.8957 48.153 61.9396V70.5053H45.851ZM68.9752 68.752C68.1543 70.0726 66.7981 70.7328 64.9065 70.7328C63.5413 70.7328 62.4349 70.3447 61.5873 69.5684C60.7396 68.7832 60.3158 67.7482 60.3158 66.4634C60.3158 65.2142 60.7396 64.2327 61.5873 63.5189C62.4438 62.8051 63.6662 62.4437 65.2545 62.4348H68.9618V61.0027C68.9618 60.0837 68.7031 59.3788 68.1855 58.8881C67.677 58.3884 66.9453 58.1386 65.9906 58.1386C65.1072 58.1386 64.4068 58.3483 63.8893 58.7676C63.3807 59.187 63.0907 59.7536 63.0194 60.4674H60.8512C60.9315 59.1825 61.4088 58.152 62.2832 57.3757C63.1666 56.5994 64.4291 56.2113 66.0709 56.2113C67.6145 56.2113 68.8637 56.6173 69.8184 57.4292C70.7731 58.2323 71.2505 59.3565 71.2505 60.802V70.5053H69.0421V68.752H68.9752ZM65.5221 68.8189C66.5126 68.8189 67.3334 68.5423 67.9848 67.9891C68.6361 67.427 68.9618 66.7087 68.9618 65.8343V64.2015H65.4285C64.5005 64.2015 63.809 64.3978 63.354 64.7904C62.8989 65.183 62.6714 65.7139 62.6714 66.3831C62.6714 67.1683 62.948 67.7705 63.5012 68.1899C64.0544 68.6093 64.728 68.8189 65.5221 68.8189ZM75.9718 56.4388V52.9322H78.2604V56.4388H81.0443V58.3661H78.2604V66.5972C78.2604 67.427 78.421 67.9891 78.7422 68.2836C79.0724 68.5691 79.6746 68.7119 80.5491 68.7119C80.8167 68.7119 81.013 68.7029 81.138 68.6851V70.5321C80.8257 70.5945 80.4375 70.6258 79.9736 70.6258C79.1438 70.6258 78.4656 70.5499 77.9392 70.3982C77.4128 70.2376 77.0023 69.9789 76.7079 69.622C76.4224 69.2651 76.2261 68.8546 76.119 68.3907C76.0119 67.9178 75.9584 67.311 75.9584 66.5704V58.3661H74.0713V56.4388H75.9718ZM90.42 56.4388V52.9322H92.7086V56.4388H95.4925V58.3661H92.7086V66.5972C92.7086 67.427 92.8692 67.9891 93.1904 68.2836C93.5206 68.5691 94.1228 68.7119 94.9973 68.7119C95.2649 68.7119 95.4612 68.7029 95.5862 68.6851V70.5321C95.2739 70.5945 94.8857 70.6258 94.4218 70.6258C93.592 70.6258 92.9138 70.5499 92.3874 70.3982C91.861 70.2376 91.4505 69.9789 91.1561 69.622C90.8706 69.2651 90.6743 68.8546 90.5672 68.3907C90.4601 67.9178 90.4066 67.311 90.4066 66.5704V58.3661H88.5194V56.4388H90.42ZM98.9423 70.5053V51.2726H101.244V58.2992H101.311C101.632 57.746 102.137 57.2597 102.824 56.8403C103.52 56.421 104.381 56.2113 105.407 56.2113C106.906 56.2113 108.119 56.6753 109.047 57.6032C109.984 58.5222 110.452 59.816 110.452 61.4846V70.5053H108.15V61.8727C108.15 60.7127 107.843 59.8294 107.227 59.2227C106.611 58.607 105.773 58.2992 104.711 58.2992C103.569 58.2992 102.703 58.6472 102.114 59.3431C101.534 60.0302 101.244 60.8957 101.244 61.9396V70.5053H98.9423ZM114.344 70.5053V56.4388H116.646V70.5053H114.344ZM114.451 54.0966C114.166 53.8111 114.023 53.4631 114.023 53.0527C114.023 52.6423 114.166 52.2943 114.451 52.0087C114.737 51.7232 115.085 51.5805 115.495 51.5805C115.905 51.5805 116.253 51.7232 116.539 52.0087C116.833 52.2943 116.981 52.6423 116.981 53.0527C116.981 53.4631 116.833 53.8111 116.539 54.0966C116.253 54.3732 115.905 54.5115 115.495 54.5115C115.085 54.5115 114.737 54.3732 114.451 54.0966ZM120.765 70.5053V56.4388H123.054V58.2992H123.121C123.442 57.746 123.946 57.2597 124.633 56.8403C125.329 56.421 126.194 56.2113 127.229 56.2113C128.72 56.2113 129.933 56.6753 130.87 57.6032C131.807 58.5222 132.275 59.816 132.275 61.4846V70.5053H129.973V61.8727C129.973 60.7127 129.661 59.8294 129.036 59.2227C128.421 58.607 127.586 58.2992 126.534 58.2992C125.391 58.2992 124.526 58.6472 123.937 59.3431C123.357 60.0302 123.067 60.8957 123.067 61.9396V70.5053H120.765ZM141.507 73.7308C142.631 73.7308 143.523 73.4185 144.184 72.794C144.844 72.1783 145.174 71.3217 145.174 70.2242V68.1497H145.107C144.813 68.7832 144.3 69.3141 143.568 69.7424C142.845 70.1618 142.02 70.3715 141.092 70.3715C139.406 70.3715 138.045 69.8004 137.01 68.6583C135.984 67.5162 135.471 65.9146 135.471 63.8535V62.6891C135.471 60.6637 135.984 59.0799 137.01 57.9378C138.045 56.7957 139.406 56.2247 141.092 56.2247C142.011 56.2247 142.836 56.4344 143.568 56.8537C144.3 57.2731 144.839 57.7951 145.187 58.4196H145.254V56.4388H147.476V70.251C147.476 71.1254 147.315 71.9106 146.994 72.6066C146.673 73.3025 146.231 73.8691 145.669 74.3063C145.116 74.7435 144.483 75.0781 143.769 75.3101C143.064 75.5421 142.305 75.6581 141.493 75.6581C139.78 75.6581 138.442 75.2834 137.478 74.5339C136.515 73.7844 135.948 72.7895 135.779 71.5493H138.134C138.268 72.156 138.634 72.669 139.232 73.0884C139.829 73.5167 140.588 73.7308 141.507 73.7308ZM141.534 58.2055C140.347 58.2055 139.423 58.6115 138.763 59.4234C138.103 60.2354 137.773 61.3819 137.773 62.8631V63.7331C137.773 65.1964 138.103 66.3429 138.763 67.1727C139.432 67.9936 140.356 68.404 141.534 68.404C142.676 68.404 143.568 67.9891 144.21 67.1593C144.853 66.3295 145.174 65.1874 145.174 63.7331V62.8631C145.174 61.4355 144.844 60.3023 144.184 59.4636C143.532 58.6249 142.649 58.2055 141.534 58.2055ZM151.595 52.2363H154.205L153.911 65.0714H151.89L151.595 52.2363ZM151.354 69.2472C151.354 68.8189 151.501 68.4576 151.796 68.1631C152.099 67.8687 152.465 67.7215 152.893 67.7215C153.322 67.7215 153.683 67.8687 153.977 68.1631C154.281 68.4576 154.433 68.8189 154.433 69.2472C154.433 69.6666 154.281 70.0235 153.977 70.3179C153.683 70.6124 153.322 70.7596 152.893 70.7596C152.474 70.7596 152.113 70.6124 151.809 70.3179C151.506 70.0235 151.354 69.6666 151.354 69.2472ZM32.1223 82.2363H37.9845C40.6345 82.2363 42.6332 83.0081 43.9805 84.5517C45.3367 86.0864 46.0148 88.3572 46.0148 91.3641C46.0148 94.3621 45.3367 96.6374 43.9805 98.1899C42.6242 99.7335 40.6256 100.505 37.9845 100.505H32.1223V82.2363ZM34.4645 84.3242V98.4174H37.8506C41.6784 98.4174 43.5923 96.0663 43.5923 91.3641C43.5923 86.6708 41.6784 84.3242 37.8506 84.3242H34.4645ZM50.1606 88.0583C51.2224 86.827 52.708 86.2113 54.6175 86.2113C56.5269 86.2113 58.0081 86.827 59.0609 88.0583C60.1138 89.2896 60.6402 90.8778 60.6402 92.8229V94.081C60.6402 96.0529 60.1138 97.6545 59.0609 98.8859C58.017 100.117 56.5358 100.733 54.6175 100.733C52.6991 100.733 51.209 100.117 50.1472 98.8859C49.0944 97.6545 48.5679 96.0529 48.5679 94.081V92.8229C48.5679 90.8778 49.0988 89.2896 50.1606 88.0583ZM54.6175 88.1787C53.4218 88.1787 52.4984 88.6026 51.847 89.4502C51.1957 90.2889 50.87 91.4399 50.87 92.9032V94.0007C50.87 95.4551 51.1957 96.6106 51.847 97.4672C52.4984 98.3148 53.4218 98.7386 54.6175 98.7386C55.8042 98.7386 56.7187 98.3148 57.3612 97.4672C58.0125 96.6195 58.3382 95.464 58.3382 94.0007V92.9032C58.3382 91.4399 58.0125 90.2889 57.3612 89.4502C56.7187 88.6026 55.8042 88.1787 54.6175 88.1787ZM64.0633 100.505V86.4388H66.3519V88.2992H66.4189C66.7401 87.746 67.2442 87.2597 67.9312 86.8403C68.6272 86.421 69.4927 86.2113 70.5277 86.2113C72.0178 86.2113 73.2313 86.6753 74.1682 87.6032C75.105 88.5222 75.5735 89.816 75.5735 91.4846V100.505H73.2714V91.8727C73.2714 90.7127 72.9591 89.8294 72.3346 89.2227C71.7189 88.607 70.8846 88.2992 69.8318 88.2992C68.6897 88.2992 67.8242 88.6472 67.2353 89.3431C66.6553 90.0302 66.3653 90.8957 66.3653 91.9396V100.505H64.0633ZM79.7996 87.8977H77.9526L79.465 82.2363H81.9276L79.7996 87.8977ZM85.9262 86.4388V82.9322H88.2148V86.4388H90.9987V88.3661H88.2148V96.5972C88.2148 97.427 88.3754 97.9891 88.6967 98.2836C89.0268 98.5691 89.6291 98.7119 90.5035 98.7119C90.7712 98.7119 90.9675 98.7029 91.0924 98.6851V100.532C90.7801 100.595 90.3919 100.626 89.928 100.626C89.0982 100.626 88.4201 100.55 87.8936 100.398C87.3672 100.238 86.9567 99.9789 86.6623 99.622C86.3768 99.2651 86.1805 98.8546 86.0734 98.3907C85.9663 97.9178 85.9128 97.311 85.9128 96.5704V88.3661H84.0257V86.4388H85.9262ZM100.374 100.505V88.3661H98.4739V86.4388H100.374V85.0335C100.374 83.6862 100.718 82.6958 101.405 82.0623C102.101 81.4199 103.172 81.0986 104.617 81.0986C104.983 81.0986 105.326 81.1254 105.648 81.1789V83.0661C105.38 83.0304 105.139 83.0125 104.925 83.0125C104.131 83.0125 103.555 83.1731 103.198 83.4944C102.841 83.8156 102.663 84.3911 102.663 85.2209V86.4388H105.434V88.3661H102.676V100.505H100.374ZM109.459 88.0583C110.521 86.827 112.006 86.2113 113.916 86.2113C115.825 86.2113 117.306 86.827 118.359 88.0583C119.412 89.2896 119.938 90.8778 119.938 92.8229V94.081C119.938 96.0529 119.412 97.6545 118.359 98.8859C117.315 100.117 115.834 100.733 113.916 100.733C111.997 100.733 110.507 100.117 109.445 98.8859C108.393 97.6545 107.866 96.0529 107.866 94.081V92.8229C107.866 90.8778 108.397 89.2896 109.459 88.0583ZM113.916 88.1787C112.72 88.1787 111.797 88.6026 111.145 89.4502C110.494 90.2889 110.168 91.4399 110.168 92.9032V94.0007C110.168 95.4551 110.494 96.6106 111.145 97.4672C111.797 98.3148 112.72 98.7386 113.916 98.7386C115.102 98.7386 116.017 98.3148 116.659 97.4672C117.311 96.6195 117.636 95.464 117.636 94.0007V92.9032C117.636 91.4399 117.311 90.2889 116.659 89.4502C116.017 88.6026 115.102 88.1787 113.916 88.1787ZM123.362 100.505V86.4388H125.664V88.1653H125.73C125.989 87.6478 126.404 87.1972 126.975 86.8136C127.555 86.421 128.296 86.2247 129.197 86.2247C129.465 86.2247 129.755 86.247 130.067 86.2916V88.3929C129.853 88.3572 129.478 88.3393 128.943 88.3393C126.765 88.3393 125.677 89.4904 125.677 91.7924V100.505H123.362ZM138 103.731C139.125 103.731 140.017 103.419 140.677 102.794C141.337 102.178 141.667 101.322 141.667 100.224V98.1497H141.601C141.306 98.7832 140.793 99.3141 140.061 99.7424C139.339 100.162 138.513 100.371 137.585 100.371C135.899 100.371 134.538 99.8004 133.503 98.6583C132.477 97.5162 131.964 95.9146 131.964 93.8535V92.6891C131.964 90.6637 132.477 89.0799 133.503 87.9378C134.538 86.7957 135.899 86.2247 137.585 86.2247C138.504 86.2247 139.33 86.4344 140.061 86.8537C140.793 87.2731 141.333 87.7951 141.681 88.4196H141.748V86.4388H143.97V100.251C143.97 101.125 143.809 101.911 143.488 102.607C143.166 103.303 142.725 103.869 142.163 104.306C141.609 104.744 140.976 105.078 140.262 105.31C139.557 105.542 138.799 105.658 137.987 105.658C136.274 105.658 134.935 105.283 133.972 104.534C133.008 103.784 132.442 102.789 132.272 101.549H134.628C134.761 102.156 135.127 102.669 135.725 103.088C136.323 103.517 137.081 103.731 138 103.731ZM138.027 88.2055C136.84 88.2055 135.917 88.6115 135.257 89.4234C134.596 90.2354 134.266 91.3819 134.266 92.8631V93.7331C134.266 95.1964 134.596 96.3429 135.257 97.1727C135.926 97.9936 136.849 98.404 138.027 98.404C139.169 98.404 140.061 97.9891 140.704 97.1593C141.346 96.3295 141.667 95.1874 141.667 93.7331V92.8631C141.667 91.4355 141.337 90.3023 140.677 89.4636C140.026 88.6249 139.142 88.2055 138.027 88.2055ZM153.322 100.733C151.501 100.733 150.06 100.139 148.999 98.9528C147.946 97.7571 147.419 96.1555 147.419 94.148V92.5687C147.419 90.6771 147.932 89.1468 148.959 87.978C149.985 86.8002 151.403 86.2113 153.215 86.2113C155.026 86.2113 156.445 86.8091 157.471 88.0047C158.497 89.1914 159.01 90.7663 159.01 92.7293V94.0409H149.721V94.2952C149.721 95.6514 150.047 96.7444 150.698 97.5742C151.35 98.3951 152.242 98.8056 153.375 98.8056C154.178 98.8056 154.847 98.6182 155.383 98.2434C155.918 97.8687 156.302 97.3467 156.534 96.6775H158.822C158.546 97.8999 157.935 98.8814 156.989 99.622C156.043 100.363 154.821 100.733 153.322 100.733ZM149.721 92.1805H156.708V92.1404C156.708 90.9983 156.387 90.048 155.744 89.2896C155.102 88.5222 154.263 88.1386 153.228 88.1386C152.184 88.1386 151.336 88.5222 150.685 89.2896C150.043 90.0569 149.721 91.0072 149.721 92.1404V92.1805ZM163.236 86.4388V82.9322H165.525V86.4388H168.308V88.3661H165.525V96.5972C165.525 97.427 165.685 97.9891 166.006 98.2836C166.337 98.5691 166.939 98.7119 167.813 98.7119C168.081 98.7119 168.277 98.7029 168.402 98.6851V100.532C168.09 100.595 167.702 100.626 167.238 100.626C166.408 100.626 165.73 100.55 165.203 100.398C164.677 100.238 164.266 99.9789 163.972 99.622C163.687 99.2651 163.49 98.8546 163.383 98.3907C163.276 97.9178 163.223 97.311 163.223 96.5704V88.3661H161.335V86.4388H163.236ZM176.935 100.505V86.4388H179.237V100.505H176.935ZM177.042 84.0966C176.756 83.8111 176.613 83.4631 176.613 83.0527C176.613 82.6423 176.756 82.2943 177.042 82.0087C177.327 81.7232 177.675 81.5805 178.086 81.5805C178.496 81.5805 178.844 81.7232 179.13 82.0087C179.424 82.2943 179.571 82.6423 179.571 83.0527C179.571 83.4631 179.424 83.8111 179.13 84.0966C178.844 84.3732 178.496 84.5115 178.086 84.5115C177.675 84.5115 177.327 84.3732 177.042 84.0966ZM184.239 86.4388V82.9322H186.528V86.4388H189.312V88.3661H186.528V96.5972C186.528 97.427 186.688 97.9891 187.009 98.2836C187.34 98.5691 187.942 98.7119 188.816 98.7119C189.084 98.7119 189.28 98.7029 189.405 98.6851V100.532C189.093 100.595 188.705 100.626 188.241 100.626C187.411 100.626 186.733 100.55 186.206 100.398C185.68 100.238 185.27 99.9789 184.975 99.622C184.69 99.2651 184.493 98.8546 184.386 98.3907C184.279 97.9178 184.226 97.311 184.226 96.5704V88.3661H182.339V86.4388H184.239Z" fill="white"/>
<rect x="29.9274" y="1" width="166.42" height="119.011" stroke="#26252A" stroke-width="0.805851"/>
<path d="M216 20.6526C216 9.79879 207.201 1 196.347 1V1V29.4446H216V20.6526Z" fill="#26252A" stroke="#26252A" stroke-width="0.805851"/>
<rect width="19.6526" height="62.1214" transform="matrix(-1 0 0 1 216 29.4446)" fill="#26252A" stroke="#26252A" stroke-width="0.805851"/>
<path d="M216 100.358C216 111.212 207.201 120.011 196.347 120.011V120.011V91.566H216V100.358Z" fill="#26252A" stroke="#26252A" stroke-width="0.805851"/>
</svg>
