<svg width="376" height="91" viewBox="0 0 376 91" fill="none" xmlns="http://www.w3.org/2000/svg">
<path d="M10.2748 20.6526C10.2748 9.79879 19.0736 1 29.9274 1V1V29.4446H10.2748V20.6526Z" fill="#26252A" stroke="#26252A" stroke-width="0.805851"/>
<rect x="10.2748" y="29.4446" width="19.6526" height="32.1214" fill="#26252A" stroke="#26252A" stroke-width="0.805851"/>
<path fill-rule="evenodd" clip-rule="evenodd" d="M10.6316 74.1049C10.3975 72.8919 10.2748 71.6393 10.2748 70.358V61.566H29.9275V90.0106C25.1685 90.0106 20.8045 88.3191 17.4041 85.5044C14.0117 87.7644 8.57206 89.9127 2 88.7177C3.81011 87.942 10.792 83.2874 10.5334 73.9783C10.5648 74.0214 10.5975 74.0636 10.6316 74.1049Z" fill="#26252A"/>
<path d="M10.6316 74.1049L10.321 74.3615L11.0272 74.0285L10.6316 74.1049ZM10.2748 61.566V61.1631H9.87192V61.566H10.2748ZM29.9275 61.566H30.3304V61.1631H29.9275V61.566ZM29.9275 90.0106V90.4136H30.3304V90.0106H29.9275ZM17.4041 85.5044L17.661 85.194L17.4302 85.0029L17.1807 85.169L17.4041 85.5044ZM2 88.7177L1.84128 88.3474L0.610887 88.8747L1.92792 89.1142L2 88.7177ZM10.5334 73.9783L10.8592 73.7413L10.0945 72.6898L10.1306 73.9895L10.5334 73.9783ZM9.87192 70.358C9.87192 71.6651 9.99701 72.9433 10.236 74.1812L11.0272 74.0285C10.7979 72.8406 10.6778 71.6135 10.6778 70.358H9.87192ZM9.87192 61.566V70.358H10.6778V61.566H9.87192ZM29.9275 61.1631H10.2748V61.969H29.9275V61.1631ZM30.3304 90.0106V61.566H29.5246V90.0106H30.3304ZM17.1472 85.8147C20.6172 88.687 25.0712 90.4136 29.9275 90.4136V89.6077C25.2657 89.6077 20.9919 87.9511 17.661 85.194L17.1472 85.8147ZM1.92792 89.1142C8.62833 90.3324 14.1727 88.1413 17.6275 85.8397L17.1807 85.169C13.8508 87.3875 8.5158 89.4929 2.07208 88.3213L1.92792 89.1142ZM10.1306 73.9895C10.2568 78.5328 8.61843 81.933 6.72782 84.2963C4.8293 86.6695 2.68461 87.986 1.84128 88.3474L2.15872 89.0881C3.1255 88.6737 5.3768 87.2751 7.35708 84.7997C9.34528 82.3145 11.0685 78.7329 10.9361 73.9671L10.1306 73.9895ZM10.9422 73.8482C10.9133 73.8133 10.8857 73.7776 10.8592 73.7413L10.2075 74.2153C10.2439 74.2653 10.2817 74.314 10.321 74.3615L10.9422 73.8482Z" fill="#26252A"/>
<rect x="29.9274" y="1" width="325.42" height="89.0106" fill="#26252A"/>
<path d="M30.7438 35.58H33.086C33.1752 36.5169 33.6079 37.2932 34.3842 37.9088C35.1694 38.5156 36.2357 38.8189 37.583 38.8189C38.8589 38.8189 39.8716 38.529 40.6211 37.949C41.3795 37.369 41.7587 36.5838 41.7587 35.5934C41.7587 34.8439 41.5178 34.2416 41.036 33.7866C40.5542 33.3315 39.8002 32.9702 38.7741 32.7025L35.562 31.8593C34.982 31.7076 34.4511 31.5113 33.9693 31.2704C33.4875 31.0206 33.0369 30.7083 32.6175 30.3335C32.2071 29.9588 31.8814 29.4948 31.6405 28.9416C31.4085 28.3795 31.2925 27.7549 31.2925 27.0679C31.2925 26.2381 31.4665 25.4841 31.8145 24.806C32.1714 24.1279 32.6443 23.5747 33.2332 23.1464C33.8221 22.7181 34.4913 22.388 35.2408 22.156C35.9992 21.924 36.7933 21.808 37.6231 21.808C38.2566 21.808 38.8678 21.8749 39.4567 22.0087C40.0545 22.1337 40.6211 22.3389 41.1565 22.6244C41.7007 22.901 42.1736 23.2401 42.5752 23.6416C42.9767 24.0342 43.2979 24.5205 43.5388 25.1004C43.7886 25.6804 43.9225 26.3139 43.9403 27.0009H41.6249C41.5446 26.0819 41.152 25.3324 40.4471 24.7524C39.7512 24.1636 38.792 23.8691 37.5696 23.8691C36.4096 23.8691 35.4683 24.1368 34.7456 24.6721C34.0228 25.2075 33.6615 25.9525 33.6615 26.9073C33.6615 28.2813 34.518 29.1825 36.2312 29.6108L39.3898 30.454C40.1304 30.6503 40.7728 30.8778 41.3171 31.1366C41.8703 31.3953 42.3655 31.721 42.8027 32.1136C43.2488 32.4973 43.5834 32.9657 43.8065 33.5189C44.0295 34.0721 44.1411 34.7056 44.1411 35.4194C44.1411 36.2938 43.9626 37.0835 43.6057 37.7884C43.2577 38.4933 42.7759 39.0688 42.1603 39.5149C41.5446 39.961 40.8219 40.3001 39.9921 40.5321C39.1712 40.773 38.2834 40.8934 37.3287 40.8934C36.1777 40.8934 35.1605 40.7328 34.2771 40.4116C33.4027 40.0815 32.7201 39.6487 32.2294 39.1134C31.7387 38.578 31.3728 38.0159 31.1319 37.427C30.891 36.8292 30.7616 36.2135 30.7438 35.58ZM46.7477 34.1078V32.7159C46.7477 30.7886 47.2697 29.2227 48.3136 28.0181C49.3576 26.8136 50.7807 26.2113 52.5831 26.2113C53.6181 26.2113 54.5461 26.4254 55.367 26.8537C56.1878 27.2731 56.808 27.8084 57.2273 28.4598C57.6556 29.1022 57.8921 29.7893 57.9367 30.5209H55.6748C55.5142 29.8874 55.1662 29.3521 54.6309 28.9148C54.0955 28.4687 53.462 28.2456 52.7303 28.2456C51.5704 28.2456 50.6648 28.6516 50.0134 29.4636C49.371 30.2666 49.0498 31.3819 49.0498 32.8096V34.1212C49.0498 35.5042 49.3844 36.6151 50.0536 37.4538C50.7228 38.2836 51.6195 38.6985 52.7437 38.6985C53.5824 38.6985 54.265 38.5066 54.7915 38.123C55.3179 37.7304 55.648 37.2352 55.7819 36.6374H58.0438C57.8028 37.8954 57.2184 38.8948 56.2905 39.6354C55.3714 40.367 54.1356 40.7328 52.5831 40.7328C51.3696 40.7328 50.3168 40.4384 49.4245 39.8495C48.5323 39.2606 47.8631 38.471 47.4169 37.4805C46.9708 36.4901 46.7477 35.3659 46.7477 34.1078ZM61.159 40.5053V21.2726H63.461V28.2992H63.5279C63.8492 27.746 64.3533 27.2597 65.0403 26.8403C65.7363 26.421 66.5973 26.2113 67.6234 26.2113C69.1224 26.2113 70.3359 26.6753 71.2638 27.6032C72.2007 28.5222 72.6692 29.816 72.6692 31.4846V40.5053H70.3671V31.8727C70.3671 30.7127 70.0593 29.8294 69.4436 29.2227C68.828 28.607 67.9892 28.2992 66.9275 28.2992C65.7854 28.2992 64.9199 28.6472 64.331 29.3431C63.751 30.0302 63.461 30.8957 63.461 31.9396V40.5053H61.159ZM81.767 40.7328C79.9468 40.7328 78.5058 40.1395 77.444 38.9528C76.3911 37.7571 75.8647 36.1555 75.8647 34.148V32.5687C75.8647 30.6771 76.3777 29.1468 77.4038 27.978C78.4299 26.8002 79.8486 26.2113 81.6599 26.2113C83.4712 26.2113 84.8899 26.8091 85.916 28.0047C86.9421 29.1914 87.4552 30.7663 87.4552 32.7293V34.0409H78.1667V34.2952C78.1667 35.6514 78.4924 36.7444 79.1438 37.5742C79.7951 38.3951 80.6874 38.8056 81.8205 38.8056C82.6236 38.8056 83.2928 38.6182 83.8281 38.2434C84.3635 37.8687 84.7472 37.3467 84.9791 36.6775H87.2678C86.9912 37.8999 86.38 38.8814 85.4342 39.622C84.4884 40.3625 83.266 40.7328 81.767 40.7328ZM78.1667 32.1805H85.1531V32.1404C85.1531 30.9983 84.8319 30.048 84.1895 29.2896C83.5471 28.5222 82.7083 28.1386 81.6733 28.1386C80.6294 28.1386 79.7817 28.5222 79.1304 29.2896C78.4879 30.0569 78.1667 31.0072 78.1667 32.1404V32.1805ZM95.857 26.2247C96.7582 26.2247 97.5657 26.4254 98.2795 26.827C98.9933 27.2285 99.5332 27.7504 99.899 28.3929H99.9659V21.2726H102.268V40.5053H100.06V38.3907H100.006C99.6045 39.1223 99.0424 39.6934 98.3197 40.1038C97.6059 40.5142 96.785 40.7195 95.857 40.7195C94.0636 40.7195 92.6761 40.1216 91.6946 38.926C90.7221 37.7215 90.2358 36.1154 90.2358 34.1078V32.8363C90.2358 30.8823 90.7355 29.2941 91.7348 28.0717C92.7431 26.8403 94.1171 26.2247 95.857 26.2247ZM96.1783 28.2323C95.0897 28.2323 94.2108 28.6338 93.5416 29.4368C92.8814 30.2399 92.5512 31.3998 92.5512 32.9166V34.0275C92.5512 35.5443 92.8858 36.7043 93.555 37.5073C94.2242 38.3103 95.112 38.7119 96.2184 38.7119C97.4051 38.7119 98.3331 38.3059 99.0023 37.4939C99.6715 36.6731 100.006 35.522 100.006 34.0409V32.9166C100.006 31.489 99.6625 30.3514 98.9755 29.5037C98.2885 28.6561 97.356 28.2323 96.1783 28.2323ZM117.482 26.4388V40.5053H115.194V38.6583H115.1C114.832 39.2651 114.35 39.7647 113.654 40.1573C112.967 40.541 112.093 40.7328 111.031 40.7328C109.532 40.7328 108.328 40.3135 107.418 39.4747C106.507 38.6271 106.052 37.4181 106.052 35.8477V26.4388H108.368V35.1919C108.368 36.4232 108.671 37.311 109.278 37.8553C109.894 38.3907 110.71 38.6583 111.727 38.6583C112.762 38.6583 113.592 38.3505 114.217 37.7348C114.85 37.1103 115.167 36.2492 115.167 35.1517V26.4388H117.482ZM121.534 40.5053V21.2726H123.823V40.5053H121.534ZM133.229 40.7328C131.408 40.7328 129.967 40.1395 128.906 38.9528C127.853 37.7571 127.326 36.1555 127.326 34.148V32.5687C127.326 30.6771 127.839 29.1468 128.866 27.978C129.892 26.8002 131.31 26.2113 133.122 26.2113C134.933 26.2113 136.352 26.8091 137.378 28.0047C138.404 29.1914 138.917 30.7663 138.917 32.7293V34.0409H129.628V34.2952C129.628 35.6514 129.954 36.7444 130.605 37.5742C131.257 38.3951 132.149 38.8056 133.282 38.8056C134.085 38.8056 134.754 38.6182 135.29 38.2434C135.825 37.8687 136.209 37.3467 136.441 36.6775H138.729C138.453 37.8999 137.842 38.8814 136.896 39.622C135.95 40.3625 134.728 40.7328 133.229 40.7328ZM129.628 32.1805H136.615V32.1404C136.615 30.9983 136.294 30.048 135.651 29.2896C135.009 28.5222 134.17 28.1386 133.135 28.1386C132.091 28.1386 131.243 28.5222 130.592 29.2896C129.95 30.0569 129.628 31.0072 129.628 32.1404V32.1805ZM155.466 38.752C154.645 40.0726 153.289 40.7328 151.398 40.7328C150.032 40.7328 148.926 40.3447 148.078 39.5684C147.231 38.7832 146.807 37.7482 146.807 36.4634C146.807 35.2142 147.231 34.2327 148.078 33.5189C148.935 32.8051 150.157 32.4437 151.746 32.4348H155.453V31.0027C155.453 30.0837 155.194 29.3788 154.677 28.8881C154.168 28.3884 153.436 28.1386 152.482 28.1386C151.598 28.1386 150.898 28.3483 150.38 28.7676C149.872 29.187 149.582 29.7536 149.51 30.4674H147.342C147.423 29.1825 147.9 28.152 148.774 27.3757C149.658 26.5994 150.92 26.2113 152.562 26.2113C154.106 26.2113 155.355 26.6173 156.309 27.4292C157.264 28.2323 157.742 29.3565 157.742 30.802V40.5053H155.533V38.752H155.466ZM152.013 38.8189C153.004 38.8189 153.825 38.5423 154.476 37.9891C155.127 37.427 155.453 36.7087 155.453 35.8343V34.2015H151.92C150.992 34.2015 150.3 34.3978 149.845 34.7904C149.39 35.183 149.162 35.7139 149.162 36.3831C149.162 37.1683 149.439 37.7705 149.992 38.1899C150.545 38.6093 151.219 38.8189 152.013 38.8189ZM166.93 40.5053V26.4388H169.232V28.1653H169.299C169.558 27.6478 169.973 27.1972 170.544 26.8136C171.124 26.421 171.864 26.2247 172.765 26.2247C173.033 26.2247 173.323 26.247 173.635 26.2916V28.3929C173.421 28.3572 173.046 28.3393 172.511 28.3393C170.334 28.3393 169.245 29.4904 169.245 31.7924V40.5053H166.93ZM181.421 40.7328C179.601 40.7328 178.16 40.1395 177.098 38.9528C176.046 37.7571 175.519 36.1555 175.519 34.148V32.5687C175.519 30.6771 176.032 29.1468 177.058 27.978C178.084 26.8002 179.503 26.2113 181.314 26.2113C183.126 26.2113 184.544 26.8091 185.57 28.0047C186.597 29.1914 187.11 30.7663 187.11 32.7293V34.0409H177.821V34.2952C177.821 35.6514 178.147 36.7444 178.798 37.5742C179.45 38.3951 180.342 38.8056 181.475 38.8056C182.278 38.8056 182.947 38.6182 183.483 38.2434C184.018 37.8687 184.402 37.3467 184.634 36.6775H186.922C186.646 37.8999 186.034 38.8814 185.089 39.622C184.143 40.3625 182.92 40.7328 181.421 40.7328ZM177.821 32.1805H184.808V32.1404C184.808 30.9983 184.486 30.048 183.844 29.2896C183.202 28.5222 182.363 28.1386 181.328 28.1386C180.284 28.1386 179.436 28.5222 178.785 29.2896C178.142 30.0569 177.821 31.0072 177.821 32.1404V32.1805ZM190.452 40.5053V26.4388H192.741V28.1653H192.861C193.111 27.63 193.549 27.1705 194.173 26.7868C194.807 26.4031 195.556 26.2113 196.422 26.2113C198.527 26.2113 199.879 26.9653 200.477 28.4732H200.584C200.87 27.8218 201.387 27.282 202.137 26.8537C202.886 26.4254 203.805 26.2113 204.894 26.2113C206.366 26.2113 207.521 26.6351 208.36 27.4828C209.199 28.3304 209.618 29.4814 209.618 30.9358V40.5053H207.329V31.4043C207.329 30.4763 207.066 29.7268 206.54 29.1558C206.013 28.5758 205.264 28.2858 204.291 28.2858C203.319 28.2858 202.556 28.5936 202.003 29.2093C201.458 29.816 201.186 30.6191 201.186 31.6184V40.5053H198.898V31.6184C198.898 30.5477 198.625 29.7268 198.081 29.1558C197.546 28.5758 196.796 28.2858 195.833 28.2858C194.94 28.2858 194.204 28.5802 193.624 29.1691C193.044 29.7491 192.754 30.5566 192.754 31.5916V40.5053H190.452ZM213.657 40.5053V26.4388H215.959V40.5053H213.657ZM213.764 24.0966C213.478 23.8111 213.336 23.4631 213.336 23.0527C213.336 22.6423 213.478 22.2943 213.764 22.0087C214.049 21.7232 214.397 21.5805 214.808 21.5805C215.218 21.5805 215.566 21.7232 215.852 22.0087C216.146 22.2943 216.294 22.6423 216.294 23.0527C216.294 23.4631 216.146 23.8111 215.852 24.0966C215.566 24.3732 215.218 24.5115 214.808 24.5115C214.397 24.5115 214.049 24.3732 213.764 24.0966ZM220.078 40.5053V26.4388H222.367V28.2992H222.434C222.755 27.746 223.259 27.2597 223.946 26.8403C224.642 26.421 225.507 26.2113 226.542 26.2113C228.032 26.2113 229.246 26.6753 230.183 27.6032C231.12 28.5222 231.588 29.816 231.588 31.4846V40.5053H229.286V31.8727C229.286 30.7127 228.974 29.8294 228.349 29.2227C227.734 28.607 226.899 28.2992 225.846 28.2992C224.704 28.2992 223.839 28.6472 223.25 29.3431C222.67 30.0302 222.38 30.8957 222.38 31.9396V40.5053H220.078ZM240.391 26.2247C241.293 26.2247 242.1 26.4254 242.814 26.827C243.528 27.2285 244.068 27.7504 244.433 28.3929H244.5V21.2726H246.802V40.5053H244.594V38.3907H244.541C244.139 39.1223 243.577 39.6934 242.854 40.1038C242.14 40.5142 241.319 40.7195 240.391 40.7195C238.598 40.7195 237.211 40.1216 236.229 38.926C235.257 37.7215 234.77 36.1154 234.77 34.1078V32.8363C234.77 30.8823 235.27 29.2941 236.269 28.0717C237.278 26.8403 238.652 26.2247 240.391 26.2247ZM240.713 28.2323C239.624 28.2323 238.745 28.6338 238.076 29.4368C237.416 30.2399 237.086 31.3998 237.086 32.9166V34.0275C237.086 35.5443 237.42 36.7043 238.089 37.5073C238.759 38.3103 239.646 38.7119 240.753 38.7119C241.94 38.7119 242.868 38.3059 243.537 37.4939C244.206 36.6731 244.541 35.522 244.541 34.0409V32.9166C244.541 31.489 244.197 30.3514 243.51 29.5037C242.823 28.6561 241.89 28.2323 240.713 28.2323ZM256.141 40.7328C254.321 40.7328 252.88 40.1395 251.818 38.9528C250.765 37.7571 250.239 36.1555 250.239 34.148V32.5687C250.239 30.6771 250.752 29.1468 251.778 27.978C252.804 26.8002 254.223 26.2113 256.034 26.2113C257.845 26.2113 259.264 26.8091 260.29 28.0047C261.316 29.1914 261.829 30.7663 261.829 32.7293V34.0409H252.541V34.2952C252.541 35.6514 252.867 36.7444 253.518 37.5742C254.169 38.3951 255.062 38.8056 256.195 38.8056C256.998 38.8056 257.667 38.6182 258.202 38.2434C258.738 37.8687 259.121 37.3467 259.353 36.6775H261.642C261.365 37.8999 260.754 38.8814 259.808 39.622C258.863 40.3625 257.64 40.7328 256.141 40.7328ZM252.541 32.1805H259.527V32.1404C259.527 30.9983 259.206 30.048 258.564 29.2896C257.921 28.5222 257.082 28.1386 256.047 28.1386C255.004 28.1386 254.156 28.5222 253.505 29.2896C252.862 30.0569 252.541 31.0072 252.541 32.1404V32.1805ZM265.172 40.5053V26.4388H267.474V28.1653H267.541C267.8 27.6478 268.215 27.1972 268.786 26.8136C269.366 26.421 270.106 26.2247 271.007 26.2247C271.275 26.2247 271.565 26.247 271.877 26.2916V28.3929C271.663 28.3572 271.289 28.3393 270.753 28.3393C268.576 28.3393 267.487 29.4904 267.487 31.7924V40.5053H265.172ZM280.557 26.4388V22.9322H282.846V26.4388H285.63V28.3661H282.846V36.5972C282.846 37.427 283.006 37.9891 283.328 38.2836C283.658 38.5691 284.26 38.7119 285.134 38.7119C285.402 38.7119 285.598 38.7029 285.723 38.6851V40.5321C285.411 40.5945 285.023 40.6258 284.559 40.6258C283.729 40.6258 283.051 40.5499 282.525 40.3982C281.998 40.2376 281.588 39.9789 281.293 39.622C281.008 39.2651 280.811 38.8546 280.704 38.3907C280.597 37.9178 280.544 37.311 280.544 36.5704V28.3661H278.657V26.4388H280.557ZM294.112 40.7328C292.292 40.7328 290.851 40.1395 289.789 38.9528C288.736 37.7571 288.21 36.1555 288.21 34.148V32.5687C288.21 30.6771 288.723 29.1468 289.749 27.978C290.775 26.8002 292.193 26.2113 294.005 26.2113C295.816 26.2113 297.235 26.8091 298.261 28.0047C299.287 29.1914 299.8 30.7663 299.8 32.7293V34.0409H290.512V34.2952C290.512 35.6514 290.837 36.7444 291.489 37.5742C292.14 38.3951 293.032 38.8056 294.165 38.8056C294.968 38.8056 295.638 38.6182 296.173 38.2434C296.708 37.8687 297.092 37.3467 297.324 36.6775H299.613C299.336 37.8999 298.725 38.8814 297.779 39.622C296.833 40.3625 295.611 40.7328 294.112 40.7328ZM290.512 32.1805H297.498V32.1404C297.498 30.9983 297.177 30.048 296.534 29.2896C295.892 28.5222 295.053 28.1386 294.018 28.1386C292.974 28.1386 292.127 28.5222 291.475 29.2896C290.833 30.0569 290.512 31.0072 290.512 32.1404V32.1805ZM311.227 40.5053L307.64 35.1919H307.626L304.066 40.5053H301.456L306.288 33.4654L301.577 26.4388H304.334L307.774 31.779H307.787L311.227 26.4388H313.863L309.125 33.4654L313.97 40.5053H311.227ZM317.782 26.4388V22.9322H320.07V26.4388H322.854V28.3661H320.07V36.5972C320.07 37.427 320.231 37.9891 320.552 38.2836C320.882 38.5691 321.484 38.7119 322.359 38.7119C322.627 38.7119 322.823 38.7029 322.948 38.6851V40.5321C322.635 40.5945 322.247 40.6258 321.783 40.6258C320.954 40.6258 320.275 40.5499 319.749 40.3982C319.223 40.2376 318.812 39.9789 318.518 39.622C318.232 39.2651 318.036 38.8546 317.929 38.3907C317.822 37.9178 317.768 37.311 317.768 36.5704V28.3661H315.881V26.4388H317.782ZM31.3996 60.4674C31.3996 59.7536 31.5424 59.1201 31.8279 58.5669C32.1134 58.0047 32.5015 57.5586 32.9923 57.2285C33.483 56.8894 34.0318 56.6351 34.6385 56.4656C35.2542 56.2961 35.91 56.2113 36.6059 56.2113C38.1942 56.2113 39.4255 56.6084 40.2999 57.4025C41.1743 58.1966 41.6115 59.2048 41.6115 60.4272H39.4701C39.4523 60.1328 39.3898 59.8606 39.2827 59.6108C39.1757 59.3521 39.015 59.1067 38.8009 58.8747C38.5868 58.6338 38.2834 58.4464 37.8908 58.3126C37.5071 58.1698 37.0521 58.0984 36.5256 58.0984C35.6601 58.0984 34.9642 58.2858 34.4377 58.6605C33.9113 59.0264 33.6481 59.5483 33.6481 60.2265C33.6481 60.4495 33.6882 60.6548 33.7686 60.8421C33.8489 61.0206 33.9425 61.1767 34.0496 61.3106C34.1567 61.4355 34.3128 61.5559 34.518 61.6719C34.7233 61.779 34.9017 61.8682 35.0534 61.9396C35.214 62.0021 35.4371 62.0734 35.7226 62.1538C36.017 62.2251 36.2446 62.2787 36.4052 62.3144C36.5658 62.3411 36.8022 62.3813 37.1145 62.4348C37.7123 62.5419 38.2209 62.6534 38.6403 62.7694C39.0686 62.8765 39.5058 63.0326 39.9519 63.2378C40.398 63.4341 40.7594 63.6661 41.036 63.9338C41.3126 64.1926 41.5357 64.5272 41.7052 64.9376C41.8837 65.348 41.9729 65.8209 41.9729 66.3563C41.9729 67.7304 41.4643 68.8056 40.4471 69.5818C39.4389 70.3492 38.0916 70.7328 36.4052 70.7328C34.8348 70.7328 33.5678 70.3759 32.6042 69.6621C31.6405 68.9483 31.1587 67.9668 31.1587 66.7177H33.4072C33.5143 67.3779 33.8399 67.8999 34.3842 68.2836C34.9285 68.6583 35.6601 68.8457 36.5792 68.8457C37.6053 68.8457 38.3815 68.636 38.908 68.2167C39.4433 67.7973 39.711 67.2709 39.711 66.6374C39.711 66.3786 39.6753 66.1511 39.6039 65.9548C39.5326 65.7496 39.4032 65.5711 39.2158 65.4194C39.0373 65.2677 38.8634 65.1428 38.6938 65.0447C38.5332 64.9465 38.2834 64.8528 37.9443 64.7636C37.6142 64.6655 37.3421 64.5941 37.1279 64.5495C36.9227 64.5049 36.6059 64.4379 36.1777 64.3487C35.5977 64.2327 35.0936 64.1123 34.6653 63.9873C34.237 63.8624 33.8042 63.6974 33.367 63.4921C32.9387 63.278 32.5863 63.0415 32.3097 62.7828C32.042 62.5151 31.8234 62.185 31.6539 61.7924C31.4844 61.3998 31.3996 60.9581 31.3996 60.4674ZM46.1455 58.0583C47.2072 56.827 48.6929 56.2113 50.6023 56.2113C52.5117 56.2113 53.9929 56.827 55.0458 58.0583C56.0986 59.2896 56.6251 60.8778 56.6251 62.8229V64.081C56.6251 66.0529 56.0986 67.6545 55.0458 68.8859C54.0018 70.1172 52.5207 70.7328 50.6023 70.7328C48.6839 70.7328 47.1939 70.1172 46.1321 68.8859C45.0792 67.6545 44.5528 66.0529 44.5528 64.081V62.8229C44.5528 60.8778 45.0837 59.2896 46.1455 58.0583ZM50.6023 58.1787C49.4067 58.1787 48.4832 58.6026 47.8318 59.4502C47.1805 60.2889 46.8548 61.4399 46.8548 62.9032V64.0007C46.8548 65.4551 47.1805 66.6106 47.8318 67.4672C48.4832 68.3148 49.4067 68.7386 50.6023 68.7386C51.789 68.7386 52.7036 68.3148 53.346 67.4672C53.9973 66.6195 54.323 65.464 54.323 64.0007V62.9032C54.323 61.4399 53.9973 60.2889 53.346 59.4502C52.7036 58.6026 51.789 58.1787 50.6023 58.1787ZM76.119 56.4388C76.0744 56.5727 75.6327 57.8174 74.794 60.1729C73.9642 62.5285 73.1433 64.8484 72.3313 67.1326C71.5194 69.4168 71.1089 70.5633 71.1 70.5722L70.7387 71.5493C70.2033 73.0036 69.5653 74.0164 68.8248 74.5874C68.0842 75.1584 67.1072 75.444 65.8937 75.444C65.4119 75.444 64.9791 75.4038 64.5954 75.3235V73.4498C64.8988 73.4855 65.2379 73.5033 65.6126 73.5033C66.4157 73.5033 67.0269 73.3472 67.4462 73.0349C67.8745 72.7315 68.1868 72.2095 68.3831 71.469L68.5972 70.7061L63.4177 56.4388H65.974L69.775 67.949H69.8553L73.6697 56.4388H76.119ZM79.1405 58.0583C80.2023 56.827 81.6879 56.2113 83.5974 56.2113C85.5068 56.2113 86.988 56.827 88.0408 58.0583C89.0937 59.2896 89.6201 60.8778 89.6201 62.8229V64.081C89.6201 66.0529 89.0937 67.6545 88.0408 68.8859C86.9969 70.1172 85.5157 70.7328 83.5974 70.7328C81.679 70.7328 80.1889 70.1172 79.1272 68.8859C78.0743 67.6545 77.5479 66.0529 77.5479 64.081V62.8229C77.5479 60.8778 78.0787 59.2896 79.1405 58.0583ZM83.5974 58.1787C82.4018 58.1787 81.4783 58.6026 80.8269 59.4502C80.1756 60.2889 79.8499 61.4399 79.8499 62.9032V64.0007C79.8499 65.4551 80.1756 66.6106 80.8269 67.4672C81.4783 68.3148 82.4018 68.7386 83.5974 68.7386C84.7841 68.7386 85.6987 68.3148 86.3411 67.4672C86.9924 66.6195 87.3181 65.464 87.3181 64.0007V62.9032C87.3181 61.4399 86.9924 60.2889 86.3411 59.4502C85.6987 58.6026 84.7841 58.1787 83.5974 58.1787ZM104.259 56.4388V70.5053H101.97V68.6583H101.877C101.609 69.2651 101.127 69.7647 100.431 70.1573C99.7441 70.541 98.8697 70.7328 97.8079 70.7328C96.3089 70.7328 95.1043 70.3135 94.1942 69.4747C93.2841 68.6271 92.8291 67.4181 92.8291 65.8477V56.4388H95.1445V65.1919C95.1445 66.4232 95.4479 67.311 96.0546 67.8553C96.6702 68.3907 97.4867 68.6583 98.5038 68.6583C99.5389 68.6583 100.369 68.3505 100.993 67.7348C101.627 67.1103 101.944 66.2492 101.944 65.1517V56.4388H104.259ZM118.627 56.2247C119.528 56.2247 120.336 56.4254 121.049 56.827C121.763 57.2285 122.303 57.7504 122.669 58.3929H122.736V51.2726H125.038V70.5053H122.829V68.3907H122.776C122.374 69.1223 121.812 69.6934 121.089 70.1038C120.376 70.5142 119.555 70.7195 118.627 70.7195C116.833 70.7195 115.446 70.1216 114.464 68.926C113.492 67.7215 113.006 66.1154 113.006 64.1078V62.8363C113.006 60.8823 113.505 59.2941 114.505 58.0717C115.513 56.8403 116.887 56.2247 118.627 56.2247ZM118.948 58.2323C117.859 58.2323 116.981 58.6338 116.311 59.4368C115.651 60.2399 115.321 61.3998 115.321 62.9166V64.0275C115.321 65.5443 115.656 66.7043 116.325 67.5073C116.994 68.3103 117.882 68.7119 118.988 68.7119C120.175 68.7119 121.103 68.3059 121.772 67.4939C122.441 66.6731 122.776 65.522 122.776 64.0409V62.9166C122.776 61.489 122.432 60.3514 121.745 59.5037C121.058 58.6561 120.126 58.2323 118.948 58.2323ZM130.067 58.0583C131.129 56.827 132.614 56.2113 134.524 56.2113C136.433 56.2113 137.914 56.827 138.967 58.0583C140.02 59.2896 140.546 60.8778 140.546 62.8229V64.081C140.546 66.0529 140.02 67.6545 138.967 68.8859C137.923 70.1172 136.442 70.7328 134.524 70.7328C132.605 70.7328 131.115 70.1172 130.053 68.8859C129.001 67.6545 128.474 66.0529 128.474 64.081V62.8229C128.474 60.8778 129.005 59.2896 130.067 58.0583ZM134.524 58.1787C133.328 58.1787 132.405 58.6026 131.753 59.4502C131.102 60.2889 130.776 61.4399 130.776 62.9032V64.0007C130.776 65.4551 131.102 66.6106 131.753 67.4672C132.405 68.3148 133.328 68.7386 134.524 68.7386C135.71 68.7386 136.625 68.3148 137.267 67.4672C137.919 66.6195 138.244 65.464 138.244 64.0007V62.9032C138.244 61.4399 137.919 60.2889 137.267 59.4502C136.625 58.6026 135.71 58.1787 134.524 58.1787ZM143.97 70.5053V56.4388H146.258V58.2992H146.325C146.646 57.746 147.15 57.2597 147.837 56.8403C148.533 56.421 149.399 56.2113 150.434 56.2113C151.924 56.2113 153.138 56.6753 154.074 57.6032C155.011 58.5222 155.48 59.816 155.48 61.4846V70.5053H153.178V61.8727C153.178 60.7127 152.865 59.8294 152.241 59.2227C151.625 58.607 150.791 58.2992 149.738 58.2992C148.596 58.2992 147.73 58.6472 147.142 59.3431C146.562 60.0302 146.272 60.8957 146.272 61.9396V70.5053H143.97ZM159.706 57.8977H157.859L159.371 52.2363H161.834L159.706 57.8977ZM165.832 56.4388V52.9322H168.121V56.4388H170.905V58.3661H168.121V66.5972C168.121 67.427 168.282 67.9891 168.603 68.2836C168.933 68.5691 169.535 68.7119 170.41 68.7119C170.677 68.7119 170.874 68.7029 170.999 68.6851V70.5321C170.686 70.5945 170.298 70.6258 169.834 70.6258C169.004 70.6258 168.326 70.5499 167.8 70.3982C167.273 70.2376 166.863 69.9789 166.569 69.622C166.283 69.2651 166.087 68.8546 165.98 68.3907C165.873 67.9178 165.819 67.311 165.819 66.5704V58.3661H163.932V56.4388H165.832ZM180.281 70.5053V58.3661H178.38V56.4388H180.281V55.0335C180.281 53.6862 180.624 52.6958 181.311 52.0623C182.007 51.4199 183.078 51.0986 184.523 51.0986C184.889 51.0986 185.233 51.1254 185.554 51.1789V53.0661C185.286 53.0304 185.045 53.0125 184.831 53.0125C184.037 53.0125 183.462 53.1731 183.105 53.4944C182.748 53.8156 182.569 54.3911 182.569 55.2209V56.4388H185.34V58.3661H182.583V70.5053H180.281ZM189.365 58.0583C190.427 56.827 191.912 56.2113 193.822 56.2113C195.731 56.2113 197.213 56.827 198.265 58.0583C199.318 59.2896 199.845 60.8778 199.845 62.8229V64.081C199.845 66.0529 199.318 67.6545 198.265 68.8859C197.221 70.1172 195.74 70.7328 193.822 70.7328C191.904 70.7328 190.413 70.1172 189.352 68.8859C188.299 67.6545 187.772 66.0529 187.772 64.081V62.8229C187.772 60.8778 188.303 59.2896 189.365 58.0583ZM193.822 58.1787C192.626 58.1787 191.703 58.6026 191.051 59.4502C190.4 60.2889 190.074 61.4399 190.074 62.9032V64.0007C190.074 65.4551 190.4 66.6106 191.051 67.4672C191.703 68.3148 192.626 68.7386 193.822 68.7386C195.009 68.7386 195.923 68.3148 196.566 67.4672C197.217 66.6195 197.543 65.464 197.543 64.0007V62.9032C197.543 61.4399 197.217 60.2889 196.566 59.4502C195.923 58.6026 195.009 58.1787 193.822 58.1787ZM203.268 70.5053V56.4388H205.57V58.1653H205.637C205.895 57.6478 206.31 57.1972 206.881 56.8136C207.461 56.421 208.202 56.2247 209.103 56.2247C209.371 56.2247 209.661 56.247 209.973 56.2916V58.3929C209.759 58.3572 209.384 58.3393 208.849 58.3393C206.672 58.3393 205.583 59.4904 205.583 61.7924V70.5053H203.268ZM217.907 73.7308C219.031 73.7308 219.923 73.4185 220.583 72.794C221.244 72.1783 221.574 71.3217 221.574 70.2242V68.1497H221.507C221.212 68.7832 220.699 69.3141 219.968 69.7424C219.245 70.1618 218.42 70.3715 217.492 70.3715C215.805 70.3715 214.445 69.8004 213.41 68.6583C212.383 67.5162 211.87 65.9146 211.87 63.8535V62.6891C211.87 60.6637 212.383 59.0799 213.41 57.9378C214.445 56.7957 215.805 56.2247 217.492 56.2247C218.411 56.2247 219.236 56.4344 219.968 56.8537C220.699 57.2731 221.239 57.7951 221.587 58.4196H221.654V56.4388H223.876V70.251C223.876 71.1254 223.715 71.9106 223.394 72.6066C223.073 73.3025 222.631 73.8691 222.069 74.3063C221.516 74.7435 220.882 75.0781 220.168 75.3101C219.464 75.5421 218.705 75.6581 217.893 75.6581C216.18 75.6581 214.842 75.2834 213.878 74.5339C212.914 73.7844 212.348 72.7895 212.178 71.5493H214.534C214.668 72.156 215.033 72.669 215.631 73.0884C216.229 73.5167 216.987 73.7308 217.907 73.7308ZM217.933 58.2055C216.747 58.2055 215.823 58.6115 215.163 59.4234C214.503 60.2354 214.172 61.3819 214.172 62.8631V63.7331C214.172 65.1964 214.503 66.3429 215.163 67.1727C215.832 67.9936 216.756 68.404 217.933 68.404C219.075 68.404 219.968 67.9891 220.61 67.1593C221.253 66.3295 221.574 65.1874 221.574 63.7331V62.8631C221.574 61.4355 221.244 60.3023 220.583 59.4636C219.932 58.6249 219.049 58.2055 217.933 58.2055ZM233.228 70.7328C231.408 70.7328 229.967 70.1395 228.905 68.9528C227.852 67.7571 227.326 66.1555 227.326 64.148V62.5687C227.326 60.6771 227.839 59.1468 228.865 57.978C229.891 56.8002 231.31 56.2113 233.121 56.2113C234.932 56.2113 236.351 56.8091 237.377 58.0047C238.403 59.1914 238.916 60.7663 238.916 62.7293V64.0409H229.628V64.2952C229.628 65.6514 229.953 66.7444 230.605 67.5742C231.256 68.3951 232.148 68.8056 233.281 68.8056C234.084 68.8056 234.754 68.6182 235.289 68.2434C235.824 67.8687 236.208 67.3467 236.44 66.6775H238.729C238.452 67.8999 237.841 68.8814 236.895 69.622C235.949 70.3625 234.727 70.7328 233.228 70.7328ZM229.628 62.1805H236.614V62.1404C236.614 60.9983 236.293 60.048 235.65 59.2896C235.008 58.5222 234.169 58.1386 233.134 58.1386C232.09 58.1386 231.243 58.5222 230.591 59.2896C229.949 60.0569 229.628 61.0072 229.628 62.1404V62.1805ZM243.142 56.4388V52.9322H245.431V56.4388H248.215V58.3661H245.431V66.5972C245.431 67.427 245.591 67.9891 245.913 68.2836C246.243 68.5691 246.845 68.7119 247.719 68.7119C247.987 68.7119 248.183 68.7029 248.308 68.6851V70.5321C247.996 70.5945 247.608 70.6258 247.144 70.6258C246.314 70.6258 245.636 70.5499 245.11 70.3982C244.583 70.2376 244.173 69.9789 243.878 69.622C243.593 69.2651 243.396 68.8546 243.289 68.3907C243.182 67.9178 243.129 67.311 243.129 66.5704V58.3661H241.242V56.4388H243.142ZM256.132 60.4674C256.132 59.7536 256.274 59.1201 256.56 58.5669C256.845 58.0047 257.233 57.5586 257.724 57.2285C258.215 56.8894 258.764 56.6351 259.37 56.4656C259.986 56.2961 260.642 56.2113 261.338 56.2113C262.926 56.2113 264.157 56.6084 265.032 57.4025C265.906 58.1966 266.343 59.2048 266.343 60.4272H264.202C264.184 60.1328 264.122 59.8606 264.015 59.6108C263.908 59.3521 263.747 59.1067 263.533 58.8747C263.319 58.6338 263.015 58.4464 262.623 58.3126C262.239 58.1698 261.784 58.0984 261.258 58.0984C260.392 58.0984 259.696 58.2858 259.17 58.6605C258.643 59.0264 258.38 59.5483 258.38 60.2265C258.38 60.4495 258.42 60.6548 258.5 60.8421C258.581 61.0206 258.674 61.1767 258.782 61.3106C258.889 61.4355 259.045 61.5559 259.25 61.6719C259.455 61.779 259.634 61.8682 259.785 61.9396C259.946 62.0021 260.169 62.0734 260.455 62.1538C260.749 62.2251 260.976 62.2787 261.137 62.3144C261.298 62.3411 261.534 62.3813 261.846 62.4348C262.444 62.5419 262.953 62.6534 263.372 62.7694C263.8 62.8765 264.238 63.0326 264.684 63.2378C265.13 63.4341 265.491 63.6661 265.768 63.9338C266.045 64.1926 266.268 64.5272 266.437 64.9376C266.616 65.348 266.705 65.8209 266.705 66.3563C266.705 67.7304 266.196 68.8056 265.179 69.5818C264.171 70.3492 262.823 70.7328 261.137 70.7328C259.567 70.7328 258.3 70.3759 257.336 69.6621C256.372 68.9483 255.891 67.9668 255.891 66.7177H258.139C258.246 67.3779 258.572 67.8999 259.116 68.2836C259.66 68.6583 260.392 68.8457 261.311 68.8457C262.337 68.8457 263.113 68.636 263.64 68.2167C264.175 67.7973 264.443 67.2709 264.443 66.6374C264.443 66.3786 264.407 66.1511 264.336 65.9548C264.264 65.7496 264.135 65.5711 263.948 65.4194C263.769 65.2677 263.595 65.1428 263.426 65.0447C263.265 64.9465 263.015 64.8528 262.676 64.7636C262.346 64.6655 262.074 64.5941 261.86 64.5495C261.655 64.5049 261.338 64.4379 260.91 64.3487C260.33 64.2327 259.825 64.1123 259.397 63.9873C258.969 63.8624 258.536 63.6974 258.099 63.4921C257.671 63.278 257.318 63.0415 257.042 62.7828C256.774 62.5151 256.555 62.185 256.386 61.7924C256.216 61.3998 256.132 60.9581 256.132 60.4674ZM270.73 56.4388V52.9322H273.019V56.4388H275.803V58.3661H273.019V66.5972C273.019 67.427 273.179 67.9891 273.501 68.2836C273.831 68.5691 274.433 68.7119 275.307 68.7119C275.575 68.7119 275.771 68.7029 275.896 68.6851V70.5321C275.584 70.5945 275.196 70.6258 274.732 70.6258C273.902 70.6258 273.224 70.5499 272.698 70.3982C272.171 70.2376 271.761 69.9789 271.466 69.622C271.181 69.2651 270.984 68.8546 270.877 68.3907C270.77 67.9178 270.717 67.311 270.717 66.5704V58.3661H268.83V56.4388H270.73ZM290.16 56.4388V70.5053H287.872V68.6583H287.778C287.51 69.2651 287.029 69.7647 286.333 70.1573C285.646 70.541 284.771 70.7328 283.709 70.7328C282.21 70.7328 281.006 70.3135 280.096 69.4747C279.186 68.6271 278.731 67.4181 278.731 65.8477V56.4388H281.046V65.1919C281.046 66.4232 281.349 67.311 281.956 67.8553C282.572 68.3907 283.388 68.6583 284.405 68.6583C285.44 68.6583 286.27 68.3505 286.895 67.7348C287.528 67.1103 287.845 66.2492 287.845 65.1517V56.4388H290.16ZM295.002 70.5053V58.3661H293.102V56.4388H295.002V55.0335C295.002 53.6862 295.346 52.6958 296.033 52.0623C296.729 51.4199 297.799 51.0986 299.245 51.0986C299.611 51.0986 299.954 51.1254 300.275 51.1789V53.0661C300.008 53.0304 299.767 53.0125 299.553 53.0125C298.759 53.0125 298.183 53.1731 297.826 53.4944C297.469 53.8156 297.291 54.3911 297.291 55.2209V56.4388H300.061V58.3661H297.304V70.5053H295.002ZM304.314 70.5053V58.3661H302.414V56.4388H304.314V55.0335C304.314 53.6862 304.658 52.6958 305.345 52.0623C306.041 51.4199 307.111 51.0986 308.557 51.0986C308.923 51.0986 309.266 51.1254 309.587 51.1789V53.0661C309.32 53.0304 309.079 53.0125 308.865 53.0125C308.071 53.0125 307.495 53.1731 307.138 53.4944C306.781 53.8156 306.603 54.3911 306.603 55.2209V56.4388H309.373V58.3661H306.616V70.5053H304.314Z" fill="white"/>
<rect x="29.9274" y="1" width="325.42" height="89.0106" stroke="#26252A" stroke-width="0.805851"/>
<path d="M375 20.6526C375 9.79879 366.201 1 355.347 1V1V29.4446H375V20.6526Z" fill="#26252A" stroke="#26252A" stroke-width="0.805851"/>
<rect width="19.6526" height="32.1214" transform="matrix(-1 0 0 1 375 29.4446)" fill="#26252A" stroke="#26252A" stroke-width="0.805851"/>
<path d="M375 70.358C375 81.2118 366.201 90.0106 355.347 90.0106V90.0106V61.566H375V70.358Z" fill="#26252A" stroke="#26252A" stroke-width="0.805851"/>
</svg>
